<svg width="29" height="29" viewBox="0 0 29 29" fill="none" xmlns="http://www.w3.org/2000/svg">
<path d="M4.70282 7.47457V18.931C4.70282 20.1061 5.61873 21.065 6.74485 21.065C8.32141 21.0689 10.9265 21.3911 12.7696 23.2185C9.58267 22.4051 6.21933 22.9356 4.30492 23.3915C4.06469 23.4504 3.81694 23.3915 3.62549 23.2303C3.43405 23.0731 3.3252 22.8334 3.3252 22.578V8.31164C3.3252 7.84791 3.68556 7.47457 4.12473 7.47457H4.70282Z" fill="#001F0A"/>
<path d="M24.2935 7.47457H24.8716C25.3108 7.47457 25.6711 7.84791 25.6749 8.3195V22.5858C25.6749 22.8413 25.5661 23.0771 25.3746 23.2382C25.1832 23.3993 24.9354 23.4583 24.6952 23.3993C22.7808 22.9395 19.4174 22.409 16.2305 23.2264C18.0736 21.399 20.6749 21.0768 22.2553 21.0728C23.3776 21.0689 24.2935 20.11 24.2935 18.935V7.47457Z" fill="#001F0A"/>
<path d="M13.5072 7.34883C12.0762 5.6867 10.1172 4.58775 6.74485 4.57825C6.53088 4.57825 6.33194 4.66471 6.18179 4.8219C6.02788 4.9791 5.94529 5.19131 5.94529 5.41531V18.931C5.94529 19.3908 6.3019 19.7681 6.74485 19.7681C8.50364 19.7718 11.3802 20.1362 13.5072 22.1588L13.4723 19.31C11.1236 18.9238 10.4599 17.2033 10.4599 16.2373H12.4681C12.4792 16.3878 12.6278 17.2896 14.4764 17.2896C15.8621 17.2896 16.4846 16.674 16.4846 16.2373C16.4846 15.8964 16.4846 15.185 14.4764 15.185C10.982 15.185 10.4599 13.2067 10.4599 12.0281C10.4599 10.6728 11.4931 9.30897 13.4723 8.96066L13.5072 7.34883Z" fill="#001F0A"/>
<path d="M15.5154 7.24359L15.4805 8.99855C17.2216 9.42999 17.8904 10.9485 17.8904 12.0281H16.8863L15.8822 12.0471C15.8681 11.6472 15.6663 10.9758 14.4764 10.9758C13.172 10.9758 12.4681 11.5188 12.4681 12.0281C12.4681 12.4217 12.4681 13.0804 14.4764 13.0804C17.9707 13.0804 18.4929 15.0587 18.4929 16.2373C18.4929 17.5927 17.4596 18.9564 15.4805 19.3047L15.5154 22.0745C17.633 20.126 20.4534 19.7718 22.1839 19.7681C22.6231 19.7681 22.9835 19.3908 22.9835 18.931V5.41531C22.9835 5.19131 22.8971 4.9791 22.747 4.8219C22.5968 4.66471 22.3979 4.57825 22.1877 4.57825H22.1839C18.8832 4.58754 16.9366 5.64047 15.5154 7.24359Z" fill="#001F0A"/>
</svg>
