<svg width="50" height="48" viewBox="0 0 50 48" fill="none" xmlns="http://www.w3.org/2000/svg">
<path fill-rule="evenodd" clip-rule="evenodd" d="M24.5731 0.179051C23.9669 0.0849304 23.4197 0.553765 23.4197 1.16721V13.6738H28.6422C29.1945 13.6738 29.6422 14.1215 29.6422 14.6738V47.9999H49.1817V4.85667C49.1817 4.36363 48.8223 3.94416 48.3351 3.86851L24.5731 0.179051ZM37.3868 37.6317C37.3868 38.184 36.9391 38.6317 36.3868 38.6317H35.3099C34.7576 38.6317 34.3099 38.184 34.3099 37.6317V14.7435C34.3099 14.1913 34.7576 13.7435 35.3099 13.7435H36.3868C36.9391 13.7435 37.3868 14.1913 37.3868 14.7435V37.6317ZM44.4125 41.8717C44.4125 42.424 43.9648 42.8717 43.4125 42.8717H42.3356C41.7833 42.8717 41.3356 42.424 41.3356 41.8717V14.7435C41.3356 14.1913 41.7833 13.7435 42.3356 13.7435H43.4125C43.9648 13.7435 44.4125 14.1913 44.4125 14.7435V41.8717Z" fill="#001F0A"/>
<path d="M5.77128 30.9743C5.219 30.9743 4.77128 31.422 4.77128 31.9743V33.0512C4.77128 33.6035 5.21899 34.0512 5.77128 34.0512H7.82974V38.1538H5.77128C5.219 38.1538 4.77128 38.6015 4.77128 39.1538V40.2307C4.77128 40.783 5.21899 41.2307 5.77128 41.2307H7.82974V47.9999H0V25.5805C0 25.0282 0.447715 24.5805 1 24.5805H7.82974V30.9743H5.77128Z" fill="#001F0A"/>
<path fill-rule="evenodd" clip-rule="evenodd" d="M10.9062 17.7506C10.9062 17.1983 11.354 16.7506 11.9062 16.7506H25.5647C26.117 16.7506 26.5647 17.1983 26.5647 17.7506V47.9998H10.9062V17.7506ZM20.0775 40.1701C20.6298 40.1701 21.0775 39.7224 21.0775 39.1701V38.0932C21.0775 37.5409 20.6298 37.0932 20.0775 37.0932H17.3934C16.8411 37.0932 16.3934 37.5409 16.3934 38.0932V39.1701C16.3934 39.7224 16.8411 40.1701 17.3934 40.1701H20.0775ZM20.0775 33.1445C20.6298 33.1445 21.0775 32.6968 21.0775 32.1445V31.0676C21.0775 30.5153 20.6298 30.0676 20.0775 30.0676H17.3934C16.8411 30.0676 16.3934 30.5153 16.3934 31.0676V32.1445C16.3934 32.6968 16.8411 33.1445 17.3934 33.1445H20.0775ZM20.0775 26.1188C20.6298 26.1188 21.0775 25.6711 21.0775 25.1188V24.0419C21.0775 23.4896 20.6298 23.0419 20.0775 23.0419H17.3934C16.8411 23.0419 16.3934 23.4896 16.3934 24.0419V25.1188C16.3934 25.6711 16.8411 26.1188 17.3934 26.1188H20.0775Z" fill="#001F0A"/>
</svg>
