<svg width="45" height="52" viewBox="0 0 45 52" fill="none" xmlns="http://www.w3.org/2000/svg">
<path fill-rule="evenodd" clip-rule="evenodd" d="M0 5.32683C0 2.3849 2.38361 0 5.32394 0H34.2254C37.1657 0 39.5493 2.3849 39.5493 5.32683V46.6732C39.5493 49.6151 37.1657 52 34.2254 52H5.32394C2.38361 52 0 49.6151 0 46.6732V5.32683ZM13.8169 3.67805C12.7668 3.67805 11.9155 4.5298 11.9155 5.58049C11.9155 6.63118 12.7668 7.48293 13.8169 7.48293H25.7324C26.7825 7.48293 27.6338 6.63118 27.6338 5.58049C27.6338 4.5298 26.7825 3.67805 25.7324 3.67805H13.8169ZM9.12676 13.1902C7.7266 13.1902 6.59155 14.3259 6.59155 15.7268V22.1951C6.59155 23.596 7.7266 24.7317 9.12676 24.7317H30.4225C31.8227 24.7317 32.9577 23.596 32.9577 22.1951V15.7268C32.9577 14.3259 31.8227 13.1902 30.4225 13.1902H9.12676ZM18.0634 28.5366C16.9083 28.5366 15.9718 29.4735 15.9718 30.6293C15.9718 31.785 16.9083 32.722 18.0634 32.722H21.4859C22.641 32.722 23.5775 31.785 23.5775 30.6293C23.5775 29.4735 22.641 28.5366 21.4859 28.5366H18.0634ZM8.55634 28.5366C7.40121 28.5366 6.46479 29.4735 6.46479 30.6293C6.46479 31.785 7.40121 32.722 8.55634 32.722H12.1056C13.2608 32.722 14.1972 31.785 14.1972 30.6293C14.1972 29.4735 13.2608 28.5366 12.1056 28.5366H8.55634ZM27.4437 28.5366C26.2885 28.5366 25.3521 29.4735 25.3521 30.6293C25.3521 31.785 26.2885 32.722 27.4437 32.722H30.993C32.1481 32.722 33.0845 31.785 33.0845 30.6293C33.0845 29.4735 32.1481 28.5366 30.993 28.5366H27.4437ZM18.0634 34.6244C16.9083 34.6244 15.9718 35.5613 15.9718 36.7171C15.9718 37.8728 16.9083 38.8098 18.0634 38.8098H21.4859C22.641 38.8098 23.5775 37.8728 23.5775 36.7171C23.5775 35.5613 22.641 34.6244 21.4859 34.6244H18.0634ZM8.55634 34.6244C7.40121 34.6244 6.46479 35.5613 6.46479 36.7171C6.46479 37.8728 7.40121 38.8098 8.55634 38.8098H12.1056C13.2608 38.8098 14.1972 37.8728 14.1972 36.7171C14.1972 35.5613 13.2608 34.6244 12.1056 34.6244H8.55634ZM27.4437 34.6244C26.2885 34.6244 25.3521 35.5613 25.3521 36.7171C25.3521 37.8728 26.2885 38.8098 27.4437 38.8098H30.993C32.1481 38.8098 33.0845 37.8728 33.0845 36.7171C33.0845 35.5613 32.1481 34.6244 30.993 34.6244H27.4437ZM18.0634 40.7122C16.9083 40.7122 15.9718 41.6491 15.9718 42.8049C15.9718 43.9606 16.9083 44.8976 18.0634 44.8976H21.4859C22.641 44.8976 23.5775 43.9606 23.5775 42.8049C23.5775 41.6491 22.641 40.7122 21.4859 40.7122H18.0634ZM8.55634 40.7122C7.40121 40.7122 6.46479 41.6491 6.46479 42.8049C6.46479 43.9606 7.40121 44.8976 8.55634 44.8976H12.1056C13.2608 44.8976 14.1972 43.9606 14.1972 42.8049C14.1972 41.6491 13.2608 40.7122 12.1056 40.7122H8.55634ZM27.4437 40.7122C26.2885 40.7122 25.3521 41.6491 25.3521 42.8049C25.3521 43.9606 26.2885 44.8976 27.4437 44.8976H30.993C32.1481 44.8976 33.0845 43.9606 33.0845 42.8049C33.0845 41.6491 32.1481 40.7122 30.993 40.7122H27.4437Z" fill="#001F0A"/>
<path d="M43.2254 13.5707C42.2452 13.5707 41.4507 14.3657 41.4507 15.3463V36.7805C41.4507 37.7611 42.2452 38.5561 43.2254 38.5561C44.2055 38.5561 45 37.7611 45 36.7805V15.3463C45 14.3657 44.2055 13.5707 43.2254 13.5707Z" fill="#001F0A"/>
</svg>
