<svg width="29" height="29" viewBox="0 0 29 29" fill="none" xmlns="http://www.w3.org/2000/svg">
<path fill-rule="evenodd" clip-rule="evenodd" d="M20.9291 10.2143C20.3608 10.2143 19.8157 9.98851 19.4139 9.58665C19.012 9.18479 18.7862 8.63974 18.7862 8.07142V4.5H10.9291C10.3608 4.5 9.81575 4.72576 9.41388 5.12763C9.01202 5.52949 8.78625 6.07453 8.78625 6.64285V11.7857C10.3761 11.4605 12.0293 11.6864 13.4736 12.4262C14.918 13.1659 16.0674 14.3754 16.7326 15.8556C17.3978 17.3357 17.5392 18.9982 17.1335 20.5695C16.7278 22.1407 15.7992 23.5269 14.5005 24.5H22.3577C22.926 24.5 23.471 24.2742 23.8729 23.8723C24.2748 23.4705 24.5005 22.9254 24.5005 22.3571V10.2143H20.9291ZM16.6434 10.2143H12.3577C12.1682 10.2143 11.9866 10.139 11.8526 10.0051C11.7186 9.87112 11.6434 9.68943 11.6434 9.49999C11.6434 9.31055 11.7186 9.12887 11.8526 8.99492C11.9866 8.86096 12.1682 8.78571 12.3577 8.78571H16.6434C16.8328 8.78571 17.0145 8.86096 17.1485 8.99492C17.2824 9.12887 17.3577 9.31055 17.3577 9.49999C17.3577 9.68943 17.2824 9.87112 17.1485 10.0051C17.0145 10.139 16.8328 10.2143 16.6434 10.2143ZM20.9291 20.9286H19.5005C19.3111 20.9286 19.1294 20.8533 18.9955 20.7193C18.8615 20.5854 18.7862 20.4037 18.7862 20.2143C18.7862 20.0248 18.8615 19.8431 18.9955 19.7092C19.1294 19.5752 19.3111 19.5 19.5005 19.5H20.9291C21.1185 19.5 21.3002 19.5752 21.4342 19.7092C21.5681 19.8431 21.6434 20.0248 21.6434 20.2143C21.6434 20.4037 21.5681 20.5854 21.4342 20.7193C21.3002 20.8533 21.1185 20.9286 20.9291 20.9286ZM20.9291 17.3571H19.5005C19.3111 17.3571 19.1294 17.2819 18.9955 17.1479C18.8615 17.014 18.7862 16.8323 18.7862 16.6428C18.7862 16.4534 18.8615 16.2717 18.9955 16.1378C19.1294 16.0038 19.3111 15.9286 19.5005 15.9286H20.9291C21.1185 15.9286 21.3002 16.0038 21.4342 16.1378C21.5681 16.2717 21.6434 16.4534 21.6434 16.6428C21.6434 16.8323 21.5681 17.014 21.4342 17.1479C21.3002 17.2819 21.1185 17.3571 20.9291 17.3571ZM20.9291 13.7857H18.072C17.8825 13.7857 17.7008 13.7104 17.5669 13.5765C17.4329 13.4425 17.3577 13.2609 17.3577 13.0714C17.3577 12.882 17.4329 12.7003 17.5669 12.5663C17.7008 12.4324 17.8825 12.3571 18.072 12.3571H20.9291C21.1185 12.3571 21.3002 12.4324 21.4342 12.5663C21.5681 12.7003 21.6434 12.882 21.6434 13.0714C21.6434 13.2609 21.5681 13.4425 21.4342 13.5765C21.3002 13.7104 21.1185 13.7857 20.9291 13.7857Z" fill="#001F0A"/>
<path d="M20.929 8.78567H24.079L20.2147 4.92139V8.07138C20.2147 8.26082 20.29 8.4425 20.4239 8.57646C20.5579 8.71041 20.7396 8.78567 20.929 8.78567Z" fill="#001F0A"/>
<path fill-rule="evenodd" clip-rule="evenodd" d="M7.0396 14.0344C7.97931 13.4065 9.0841 13.0714 10.2143 13.0714C11.7298 13.0714 13.1833 13.6734 14.2549 14.7451C15.3265 15.8167 15.9286 17.2702 15.9286 18.7857C15.9286 19.9159 15.5934 21.0207 14.9655 21.9604C14.3376 22.9001 13.4452 23.6325 12.401 24.065C11.3569 24.4975 10.2079 24.6107 9.09948 24.3902C7.99102 24.1697 6.97283 23.6255 6.17368 22.8263C5.37452 22.0271 4.83029 21.009 4.6098 19.9005C4.38931 18.792 4.50248 17.6431 4.93498 16.5989C5.36748 15.5548 6.09989 14.6623 7.0396 14.0344ZM9.18255 16.7632C9.06508 16.6847 8.92698 16.6428 8.78571 16.6428C8.59627 16.6428 8.41459 16.7181 8.28064 16.852C8.14668 16.986 8.07143 17.1677 8.07143 17.3571C8.07143 17.4984 8.11332 17.6365 8.19181 17.754C8.27029 17.8714 8.38185 17.963 8.51237 18.017C8.64289 18.0711 8.7865 18.0852 8.92506 18.0577C9.06362 18.0301 9.19089 17.9621 9.29079 17.8622C9.39068 17.7623 9.45871 17.635 9.48627 17.4965C9.51383 17.3579 9.49969 17.2143 9.44563 17.0838C9.39156 16.9533 9.30001 16.8417 9.18255 16.7632ZM11.246 20.8082C11.3635 20.8867 11.5016 20.9285 11.6429 20.9285C11.8323 20.9285 12.014 20.8533 12.1479 20.7193C12.2819 20.5854 12.3571 20.4037 12.3571 20.2143C12.3571 20.073 12.3152 19.9349 12.2368 19.8174C12.1583 19.7 12.0467 19.6084 11.9162 19.5543C11.7857 19.5003 11.6421 19.4861 11.5035 19.5137C11.3649 19.5413 11.2377 19.6093 11.1378 19.7092C11.0379 19.8091 10.9699 19.9364 10.9423 20.0749C10.9147 20.2135 10.9289 20.3571 10.9829 20.4876C11.037 20.6181 11.1286 20.7297 11.246 20.8082ZM9.29285 20.7214L12.15 17.8643C12.2845 17.7298 12.3601 17.5473 12.3601 17.3571C12.3601 17.1669 12.2845 16.9845 12.15 16.85C12.0155 16.7155 11.8331 16.6399 11.6429 16.6399C11.4526 16.6399 11.2702 16.7155 11.1357 16.85L8.27857 19.7071C8.21162 19.7735 8.15848 19.8525 8.12222 19.9396C8.08596 20.0266 8.06729 20.12 8.06729 20.2143C8.06729 20.3086 8.08596 20.4019 8.12222 20.489C8.15848 20.576 8.21162 20.655 8.27857 20.7214C8.34497 20.7884 8.42397 20.8415 8.51101 20.8778C8.59806 20.914 8.69142 20.9327 8.78571 20.9327C8.88001 20.9327 8.97337 20.914 9.06041 20.8778C9.14745 20.8415 9.22645 20.7884 9.29285 20.7214Z" fill="#001F0A"/>
</svg>
