<svg width="49" height="49" viewBox="0 0 49 49" fill="none" xmlns="http://www.w3.org/2000/svg">
<path fill-rule="evenodd" clip-rule="evenodd" d="M39.7364 14.4465C38.3617 14.4465 37.0434 13.9005 36.0714 12.9285C35.0994 11.9565 34.5533 10.6382 34.5533 9.26353V0.625183H15.549C14.1744 0.625183 12.856 1.17125 11.884 2.14325C10.912 3.11525 10.366 4.43357 10.366 5.80819V18.2474C14.2114 17.4609 18.21 18.0073 21.7035 19.7966C25.197 21.5858 27.9771 24.5113 29.5861 28.0913C31.1951 31.6714 31.5371 35.6927 30.5558 39.493C29.5745 43.2934 27.3284 46.6464 24.1873 48.9999H43.1917C44.5663 48.9999 45.8846 48.4539 46.8566 47.4819C47.8286 46.5099 48.3747 45.1915 48.3747 43.8169V14.4465H39.7364ZM29.3703 14.4465H19.0043C18.5461 14.4465 18.1067 14.2645 17.7827 13.9405C17.4587 13.6165 17.2766 13.1771 17.2766 12.7189C17.2766 12.2607 17.4587 11.8212 17.7827 11.4972C18.1067 11.1732 18.5461 10.9912 19.0043 10.9912H29.3703C29.8285 10.9912 30.268 11.1732 30.592 11.4972C30.916 11.8212 31.098 12.2607 31.098 12.7189C31.098 13.1771 30.916 13.6165 30.592 13.9405C30.268 14.2645 29.8285 14.4465 29.3703 14.4465ZM39.7364 40.3616H36.281C35.8228 40.3616 35.3834 40.1796 35.0594 39.8556C34.7354 39.5316 34.5533 39.0921 34.5533 38.6339C34.5533 38.1757 34.7354 37.7363 35.0594 37.4123C35.3834 37.0883 35.8228 36.9062 36.281 36.9062H39.7364C40.1946 36.9062 40.634 37.0883 40.958 37.4123C41.282 37.7363 41.464 38.1757 41.464 38.6339C41.464 39.0921 41.282 39.5316 40.958 39.8556C40.634 40.1796 40.1946 40.3616 39.7364 40.3616ZM39.7364 31.7232H36.281C35.8228 31.7232 35.3834 31.5412 35.0594 31.2172C34.7354 30.8932 34.5533 30.4538 34.5533 29.9956C34.5533 29.5374 34.7354 29.0979 35.0594 28.7739C35.3834 28.4499 35.8228 28.2679 36.281 28.2679H39.7364C40.1946 28.2679 40.634 28.4499 40.958 28.7739C41.282 29.0979 41.464 29.5374 41.464 29.9956C41.464 30.4538 41.282 30.8932 40.958 31.2172C40.634 31.5412 40.1946 31.7232 39.7364 31.7232ZM39.7364 23.0849H32.8257C32.3675 23.0849 31.928 22.9029 31.604 22.5789C31.28 22.2549 31.098 21.8154 31.098 21.3572C31.098 20.899 31.28 20.4596 31.604 20.1356C31.928 19.8116 32.3675 19.6295 32.8257 19.6295H39.7364C40.1946 19.6295 40.634 19.8116 40.958 20.1356C41.282 20.4596 41.464 20.899 41.464 21.3572C41.464 21.8154 41.282 22.2549 40.958 22.5789C40.634 22.9029 40.1946 23.0849 39.7364 23.0849Z" fill="#001F0A"/>
<path d="M39.7365 10.9912H47.3555L38.0088 1.64447V9.26349C38.0088 9.7217 38.1908 10.1611 38.5148 10.4851C38.8388 10.8091 39.2783 10.9912 39.7365 10.9912Z" fill="#001F0A"/>
<path fill-rule="evenodd" clip-rule="evenodd" d="M6.14263 23.6866C8.41554 22.1679 11.0878 21.3573 13.8214 21.3573C17.487 21.3573 21.0025 22.8135 23.5945 25.4055C26.1866 27.9975 27.6427 31.513 27.6427 35.1787C27.6427 37.9123 26.8321 40.5845 25.3134 42.8574C23.7947 45.1303 21.6361 46.9018 19.1106 47.9479C16.585 48.994 13.806 49.2677 11.125 48.7344C8.44387 48.2011 5.98114 46.8848 4.04819 44.9518C2.11524 43.0189 0.79888 40.5562 0.26558 37.8751C-0.26772 35.194 0.0059886 32.415 1.05209 29.8895C2.0982 27.3639 3.86972 25.2053 6.14263 23.6866ZM11.3259 30.2868C11.0418 30.097 10.7077 29.9956 10.366 29.9956C9.90782 29.9956 9.46838 30.1777 9.14438 30.5017C8.82038 30.8257 8.63836 31.2651 8.63836 31.7233C8.63836 32.065 8.73968 32.399 8.92952 32.6832C9.11936 32.9673 9.38918 33.1887 9.70487 33.3195C10.0206 33.4502 10.3679 33.4845 10.7031 33.4178C11.0382 33.3511 11.3461 33.1866 11.5877 32.945C11.8293 32.7033 11.9938 32.3955 12.0605 32.0604C12.1272 31.7252 12.0929 31.3779 11.9622 31.0622C11.8314 30.7465 11.61 30.4767 11.3259 30.2868ZM16.3169 40.0705C16.601 40.2603 16.935 40.3617 17.2767 40.3617C17.7349 40.3617 18.1744 40.1796 18.4984 39.8556C18.8224 39.5316 19.0044 39.0922 19.0044 38.634C19.0044 38.2923 18.903 37.9583 18.7132 37.6742C18.5234 37.39 18.2535 37.1686 17.9379 37.0378C17.6222 36.9071 17.2748 36.8729 16.9397 36.9395C16.6045 37.0062 16.2967 37.1707 16.0551 37.4123C15.8134 37.654 15.6489 37.9618 15.5822 38.2969C15.5156 38.6321 15.5498 38.9795 15.6805 39.2951C15.8113 39.6108 16.0327 39.8807 16.3169 40.0705ZM11.5927 39.8606L18.5034 32.95C18.8287 32.6246 19.0114 32.1834 19.0114 31.7233C19.0114 31.2632 18.8287 30.822 18.5034 30.4967C18.178 30.1713 17.7368 29.9886 17.2767 29.9886C16.8166 29.9886 16.3754 30.1713 16.0501 30.4967L9.13938 37.4074C8.97745 37.568 8.84892 37.759 8.76121 37.9696C8.6735 38.1801 8.62834 38.4059 8.62834 38.634C8.62834 38.8621 8.6735 39.0879 8.76121 39.2984C8.84892 39.509 8.97745 39.7 9.13938 39.8606C9.29999 40.0226 9.49107 40.1511 9.7016 40.2388C9.91214 40.3265 10.138 40.3717 10.366 40.3717C10.5941 40.3717 10.8199 40.3265 11.0304 40.2388C11.241 40.1511 11.4321 40.0226 11.5927 39.8606Z" fill="#001F0A"/>
</svg>
