<svg width="46" height="46" viewBox="0 0 46 46" fill="none" xmlns="http://www.w3.org/2000/svg">
<path fill-rule="evenodd" clip-rule="evenodd" d="M4.75002 29.6787L26.6072 7.82146C28.4644 6.25002 31.2501 6.32144 32.9644 8.03574L29.6787 4.75001L26.3215 1.39286C24.4644 -0.464288 21.4644 -0.464288 19.6786 1.39286L1.39286 19.6787C-0.464288 21.5358 -0.464288 24.5358 1.39286 26.3215L4.75002 29.6787Z" fill="url(#paint0_linear_79_179)"/>
<path fill-rule="evenodd" clip-rule="evenodd" d="M16.7503 28.3213L29.6789 41.2499L26.3218 44.6071C24.4646 46.4642 21.4646 46.4642 19.6789 44.6071L10.1074 35.0356L16.7503 28.3213Z" fill="url(#paint1_linear_79_179)"/>
<path fill-rule="evenodd" clip-rule="evenodd" d="M29.0355 10.3216L10.5354 28.8216C8.67829 30.6788 8.67829 33.6788 10.5354 35.4645L13.8926 38.8217L17.1783 42.1074C15.464 40.3217 15.3926 37.536 16.964 35.7502L35.4641 17.2502C37.3213 15.393 37.3213 12.393 35.4641 10.6073L32.1445 7.22003L28.8587 3.93433C30.573 5.64862 30.6069 8.46444 29.0355 10.3216Z" fill="url(#paint2_linear_79_179)"/>
<path fill-rule="evenodd" clip-rule="evenodd" d="M41.2496 29.6788L37.8211 26.2502C36.0353 24.4645 33.1068 24.4645 31.321 26.2502L25.4639 32.1788L28.8925 35.6074C30.6782 37.3931 33.6068 37.3931 35.3925 35.6074L41.2496 29.6788Z" fill="url(#paint3_linear_79_179)"/>
<path fill-rule="evenodd" clip-rule="evenodd" d="M41.25 16.3215L34.75 22.893L37.8214 26.2501L38.1072 26.5359C39.6072 28.2501 39.6072 30.893 38.1786 32.6787L41.25 29.6787L44.6072 26.3216C46.4643 24.4644 46.4643 21.5358 44.6072 19.6787L41.25 16.3215Z" fill="url(#paint4_linear_79_179)"/>
<defs>
<linearGradient id="paint0_linear_79_179" x1="29.5714" y1="1.64286" x2="5.8713" y2="25.8083" gradientUnits="userSpaceOnUse">
<stop offset="0.0104167" stop-color="#3D972F"/>
<stop offset="0.869792" stop-color="#8CC765"/>
<stop offset="0.994792" stop-color="#8CC765"/>
</linearGradient>
<linearGradient id="paint1_linear_79_179" x1="13.9643" y1="32.0356" x2="24.6531" y2="43.175" gradientUnits="userSpaceOnUse">
<stop stop-color="#1B7600"/>
<stop offset="1" stop-color="#83C15F"/>
</linearGradient>
<linearGradient id="paint2_linear_79_179" x1="27.8711" y1="4.78665" x2="17.829" y2="42.4444" gradientUnits="userSpaceOnUse">
<stop stop-color="#8CC765"/>
<stop offset="1" stop-color="#4B9F38"/>
</linearGradient>
<linearGradient id="paint3_linear_79_179" x1="36.1424" y1="36.1428" x2="23.0523" y2="27.0614" gradientUnits="userSpaceOnUse">
<stop stop-color="#459427"/>
<stop offset="1" stop-color="#8CC765"/>
</linearGradient>
<linearGradient id="paint4_linear_79_179" x1="46.3563" y1="23.1183" x2="34.6737" y2="25.5926" gradientUnits="userSpaceOnUse">
<stop stop-color="#99CF61"/>
<stop offset="1" stop-color="#54A43E"/>
</linearGradient>
</defs>
</svg>
