<svg width="51" height="56" viewBox="0 0 51 56" fill="none" xmlns="http://www.w3.org/2000/svg">
<path d="M28.0906 -0.0131981V8.28249C28.0906 8.82766 27.5161 9.2693 26.8069 9.2693C26.0977 9.2693 25.5232 8.82766 25.5232 8.28249V-0.0131981C25.5232 -0.558362 26.0977 -1 26.8069 -1C27.5161 -1 28.0906 -0.558362 28.0906 -0.0131981Z" fill="#001F0A"/>
<path d="M0.000151271 54.373C-0.0132933 55.4775 0.871143 56.3838 1.97561 56.3972L4.62317 56.4295C5.72767 56.443 6.63397 55.5585 6.64741 54.454L6.80364 41.6203C6.81708 40.5158 5.93265 39.6095 4.82818 39.5961L2.18062 39.5638C1.07611 39.5503 0.16982 40.4348 0.156375 41.5393L0.000151271 54.373Z" fill="#001F0A"/>
<path d="M49.0429 42.8475L49.0648 42.8361C51.0449 41.7947 51.327 44.5986 49.4675 45.8424L34.9683 55.5404C32.6195 56.6466 29.9816 56.9822 27.4309 56.5006L14.1806 53C12.7234 52.6123 11.1728 52.8063 9.85623 53.5406L8.5313 54.2766L8.66877 42.9624C12.2641 40.4588 16.9413 40.1234 20.8574 42.0878L21.6547 42.485C23.0298 43.169 24.5413 43.5349 26.0773 43.5554C27.4938 43.5725 28.9098 43.5963 30.3254 43.6201C32.6706 43.6595 35.0157 43.6989 37.3606 43.708C37.9129 43.7102 38.3606 44.1578 38.3606 44.71V46.5659C38.3606 47.1219 37.907 47.5711 37.351 47.5658L26.8037 47.4652C26.2843 47.459 25.8576 47.8751 25.8514 48.395C25.8452 48.9149 26.2613 49.3412 26.7812 49.3474H39.3743C39.9266 49.3474 40.3743 48.8996 40.3743 48.3474V47.107L49.0429 42.8475Z" fill="#001F0A"/>
<path fill-rule="evenodd" clip-rule="evenodd" d="M12.6867 27.2406C12.6867 35.039 19.0086 41.3608 26.807 41.3608C34.6054 41.3608 40.9273 35.039 40.9273 27.2406C40.9273 19.4421 34.6054 13.1203 26.807 13.1203C19.0124 13.129 12.6954 19.4459 12.6867 27.2406ZM32.3269 28.3286H26.8658C27.1544 28.1064 27.4484 27.8935 27.7336 27.687C27.9914 27.5003 28.2424 27.3186 28.4751 27.1403C28.5967 27.0474 28.7151 26.9519 28.8319 26.8556H32.3269C32.8233 26.8556 33.2254 26.4534 33.2254 25.9572C33.2254 25.461 32.8233 25.0588 32.3269 25.0588H30.4931C30.7431 24.676 30.9565 24.2654 31.1134 23.8123C31.5175 22.6441 31.316 21.2989 30.6401 20.2765C28.9355 17.6979 25.4333 17.8886 22.9946 19.1695C21.9685 19.7086 22.8768 21.2595 23.9017 20.7211C25.1122 20.0853 26.4561 19.7983 27.7799 20.2335C28.6855 20.5311 29.4376 21.3531 29.5161 22.3193C29.6046 23.4146 28.9412 24.3332 28.1758 25.0593H21.2874C20.7911 25.0593 20.3888 25.4615 20.3888 25.9577C20.3888 26.454 20.7911 26.8561 21.2874 26.8561H25.867C25.4488 27.1649 25.038 27.4829 24.6534 27.8358C24.485 27.9906 24.3271 28.1559 24.1785 28.3291H21.2874C20.7911 28.3291 20.3888 28.7311 20.3888 29.2275C20.3888 29.7236 20.7911 30.1259 21.2874 30.1259H23.1303C22.5463 31.7475 22.7303 33.5884 24.0444 34.9438C25.8621 36.8188 28.9801 36.359 31.0904 35.331C32.1323 34.8235 31.2207 33.2743 30.1832 33.7794C28.5496 34.5755 25.5553 35.0024 24.7797 32.8158C24.4069 31.7645 24.6026 30.887 25.0847 30.1262H32.3268C32.8232 30.1262 33.2254 29.7238 33.2254 29.2277C33.2254 28.7314 32.8233 28.3286 32.3269 28.3286Z" fill="#001F0A"/>
<path d="M17.8215 5.13464C17.8215 4.58236 18.2692 4.13464 18.8215 4.13464H19.3888C19.9411 4.13464 20.3888 4.58236 20.3888 5.13464V10.8366C20.3888 11.3889 19.9411 11.8366 19.3888 11.8366H18.8215C18.2692 11.8366 17.8215 11.3889 17.8215 10.8366V5.13464Z" fill="#001F0A"/>
<path d="M34.2253 4.13464C33.673 4.13464 33.2253 4.58236 33.2253 5.13464V10.8366C33.2253 11.3889 33.673 11.8366 34.2253 11.8366H34.7926C35.3449 11.8366 35.7926 11.3889 35.7926 10.8366V5.13464C35.7926 4.58236 35.3449 4.13464 34.7926 4.13464H34.2253Z" fill="#001F0A"/>
</svg>
