<svg width="29" height="29" viewBox="0 0 29 29" fill="none" xmlns="http://www.w3.org/2000/svg">
<path d="M14.5398 5.20171C14.0445 5.20171 13.6425 4.80431 13.6425 4.31465V2.88706C13.6425 2.3974 14.0445 2 14.5398 2C15.0352 2 15.4372 2.3974 15.4372 2.88706V4.31465C15.4372 4.80431 15.0352 5.20171 14.5398 5.20171Z" fill="#001F0A"/>
<path d="M4.23878 15.3059C4.23878 15.7955 3.83677 16.1929 3.34145 16.1929H1.89733C1.40201 16.1929 1 15.7955 1 15.3059C1 14.8162 1.40201 14.4188 1.89733 14.4188H3.34145C3.83677 14.4188 4.23878 14.8162 4.23878 15.3059Z" fill="#001F0A"/>
<path d="M28 15.3059C28 15.7955 27.598 16.1929 27.1027 16.1929H25.6586C25.1632 16.1929 24.7612 15.7955 24.7612 15.3059C24.7612 14.8162 25.1632 14.4188 25.6586 14.4188H27.1027C27.598 14.4188 28 14.8162 28 15.3059Z" fill="#001F0A"/>
<path d="M7.31166 8.15649C6.96249 8.5038 6.39397 8.50553 6.04264 8.16036L5.01835 7.15403C4.66702 6.80886 4.66527 6.24684 5.01444 5.89954C5.3636 5.55223 5.93212 5.55049 6.28345 5.89566L7.30774 6.902C7.65907 7.24717 7.66082 7.80918 7.31166 8.15649Z" fill="#001F0A"/>
<path d="M21.766 8.15649C22.1152 8.5038 22.6837 8.50553 23.0351 8.16036L24.0593 7.15403C24.4107 6.80886 24.4124 6.24684 24.0633 5.89954C23.7141 5.55223 23.1456 5.55049 22.7942 5.89566L21.77 6.902C21.4186 7.24717 21.4169 7.80918 21.766 8.15649Z" fill="#001F0A"/>
<path d="M7.31166 22.4624C6.96249 22.1151 6.39397 22.1134 6.04264 22.4585L5.01835 23.4649C4.66702 23.81 4.66527 24.3721 5.01444 24.7194C5.3636 25.0667 5.93212 25.0684 6.28345 24.7232L7.30774 23.7169C7.65907 23.3717 7.66082 22.8097 7.31166 22.4624Z" fill="#001F0A"/>
<path d="M21.766 22.4624C22.1152 22.1151 22.6837 22.1134 23.0351 22.4585L24.0593 23.4649C24.4107 23.81 24.4124 24.3721 24.0633 24.7194C23.7141 25.0667 23.1456 25.0684 22.7942 24.7232L21.77 23.7169C21.4186 23.3717 21.4169 22.8097 21.766 22.4624Z" fill="#001F0A"/>
<path d="M16.9713 25.4517C17.6106 25.4517 18.1289 25.9641 18.1289 26.5962V26.9302C18.1289 28.0656 17.1837 29 16.0351 29H13.044C12.039 29 10.9502 28.243 10.9502 26.5872C10.9502 25.9601 11.4645 25.4517 12.0988 25.4517H16.9713Z" fill="#001F0A"/>
<path fill-rule="evenodd" clip-rule="evenodd" d="M19.8163 8.87171C17.8541 7.29865 15.2698 6.68362 12.7453 7.21586C9.57468 7.86637 7.00232 10.4211 6.34427 13.5554C5.67426 16.7725 6.89464 19.9659 9.50289 21.9175C10.2088 22.4379 10.6993 23.2422 10.8668 24.1765V24.1884C10.8908 24.1765 10.9267 24.1765 10.9506 24.1765H18.1293C18.1532 24.1765 18.1652 24.1765 18.1891 24.1884V24.1765C18.3566 23.2776 18.895 22.4497 19.7205 21.811C21.7425 20.2261 22.9151 17.8606 22.9151 15.3059C22.9151 12.7984 21.7904 10.4566 19.8163 8.87171ZM14.54 15.4455C15.9232 15.4455 17.0445 14.337 17.0445 12.9696C17.0445 11.6023 15.9232 10.4938 14.54 10.4938C13.1568 10.4938 12.0355 11.6023 12.0355 12.9696C12.0355 14.337 13.1568 15.4455 14.54 15.4455ZM14.5402 16.2157C11.2454 16.2157 10.0878 17.8662 10.0878 18.9666C10.0878 19.8782 10.8353 20.6172 11.7575 20.6172H17.323C18.2451 20.6172 18.9927 19.8782 18.9927 18.9666C18.9927 17.8662 17.835 16.2157 14.5402 16.2157Z" fill="#001F0A"/>
</svg>
