<svg width="53" height="54" viewBox="0 0 53 54" fill="none" xmlns="http://www.w3.org/2000/svg">
<path d="M26.5782 6.40342C25.6059 6.40342 24.8168 5.60861 24.8168 4.62929V1.77413C24.8168 0.79481 25.6059 0 26.5782 0C27.5505 0 28.3396 0.79481 28.3396 1.77413V4.62929C28.3396 5.60861 27.5505 6.40342 26.5782 6.40342Z" fill="#001F0A"/>
<path d="M6.3576 26.6118C6.3576 27.5911 5.56848 28.3859 4.59617 28.3859H1.76143C0.789123 28.3859 0 27.5911 0 26.6118C0 25.6324 0.789123 24.8376 1.76143 24.8376H4.59617C5.56848 24.8376 6.3576 25.6324 6.3576 26.6118Z" fill="#001F0A"/>
<path d="M53 26.6118C53 27.5911 52.2109 28.3859 51.2386 28.3859H48.4038C47.4315 28.3859 46.6424 27.5911 46.6424 26.6118C46.6424 25.6324 47.4315 24.8376 48.4038 24.8376H51.2386C52.2109 24.8376 53 25.6324 53 26.6118Z" fill="#001F0A"/>
<path d="M12.3895 12.313C11.7041 13.0076 10.5882 13.0111 9.89851 12.3207L7.88788 10.3081C7.19823 9.61771 7.19479 8.49369 7.88019 7.79907C8.56559 7.10445 9.68157 7.10099 10.3712 7.79133L12.3819 9.80399C13.0715 10.4943 13.075 11.6184 12.3895 12.313Z" fill="#001F0A"/>
<path d="M40.763 12.313C41.4484 13.0076 42.5644 13.0111 43.254 12.3207L45.2646 10.3081C45.9543 9.61771 45.9577 8.49369 45.2723 7.79907C44.5869 7.10445 43.4709 7.10099 42.7813 7.79133L40.7707 9.80399C40.081 10.4943 40.0776 11.6184 40.763 12.313Z" fill="#001F0A"/>
<path d="M12.3895 40.9248C11.7041 40.2302 10.5882 40.2267 9.89851 40.9171L7.88788 42.9297C7.19823 43.6201 7.19479 44.7441 7.88019 45.4387C8.56559 46.1334 9.68157 46.1368 10.3712 45.4465L12.3819 43.4338C13.0715 42.7435 13.075 41.6194 12.3895 40.9248Z" fill="#001F0A"/>
<path d="M40.763 40.9248C41.4484 40.2302 42.5644 40.2267 43.254 40.9171L45.2646 42.9297C45.9543 43.6201 45.9577 44.7441 45.2723 45.4387C44.5869 46.1334 43.4709 46.1368 42.7813 45.4465L40.7707 43.4338C40.081 42.7435 40.0776 41.6194 40.763 40.9248Z" fill="#001F0A"/>
<path d="M31.351 46.9035C32.606 46.9035 33.6234 47.9282 33.6234 49.1923V49.8604C33.6234 52.1313 31.768 54 29.5134 54H23.642C21.6692 54 19.5319 52.4861 19.5319 49.1744C19.5319 47.9202 20.5414 46.9035 21.7866 46.9035H31.351Z" fill="#001F0A"/>
<path fill-rule="evenodd" clip-rule="evenodd" d="M36.9356 13.7434C33.0839 10.5973 28.011 9.36724 23.0555 10.4317C16.8318 11.7327 11.7823 16.8422 10.4906 23.1108C9.17541 29.545 11.571 35.9319 16.6909 39.8349C18.0765 40.8758 19.0394 42.4843 19.3682 44.3531V44.3767C19.4152 44.3531 19.4857 44.3531 19.5326 44.3531H33.6241C33.6711 44.3531 33.6946 44.3531 33.7416 44.3767V44.3531C34.0703 42.5553 35.1272 40.8994 36.7477 39.622C40.7168 36.4523 43.0184 31.7213 43.0184 26.6118C43.0184 21.5969 40.8108 16.9132 36.9356 13.7434ZM26.5786 26.8909C29.2937 26.8909 31.4948 24.674 31.4948 21.9393C31.4948 19.2045 29.2937 16.9876 26.5786 16.9876C23.8634 16.9876 21.6624 19.2045 21.6624 21.9393C21.6624 24.674 23.8634 26.8909 26.5786 26.8909ZM26.579 28.4314C20.1114 28.4314 17.839 31.7325 17.839 33.9332C17.839 35.7564 19.3064 37.2343 21.1165 37.2343H32.0414C33.8515 37.2343 35.3189 35.7564 35.3189 33.9332C35.3189 31.7325 33.0465 28.4314 26.579 28.4314Z" fill="#001F0A"/>
</svg>
