<svg width="102" height="30" viewBox="0 0 102 30" fill="none" xmlns="http://www.w3.org/2000/svg">
<path fill-rule="evenodd" clip-rule="evenodd" d="M2.89132 19.0653L16.1957 5.76089C17.3262 4.80436 19.0218 4.84784 20.0653 5.89132L18.0653 3.89131L16.0218 1.84783C14.8914 0.71739 13.0653 0.71739 11.9783 1.84783L0.847829 12.9783C-0.28261 14.1087 -0.28261 15.9348 0.847829 17.0218L2.89132 19.0653Z" fill="url(#paint0_linear_25_474)"/>
<path fill-rule="evenodd" clip-rule="evenodd" d="M10.1958 18.2391L18.0654 26.1087L16.0219 28.1522C14.8915 29.2827 13.0654 29.2827 11.9785 28.1522L6.15234 22.3261L10.1958 18.2391Z" fill="url(#paint1_linear_25_474)"/>
<path fill-rule="evenodd" clip-rule="evenodd" d="M17.6742 7.28255L6.41326 18.5435C5.28282 19.6739 5.28282 21.5 6.41326 22.5869L8.45675 24.6304L10.4568 26.6304C9.41327 25.5435 9.36979 23.8478 10.3263 22.7609L21.5872 11.4999C22.7177 10.3695 22.7177 8.54343 21.5872 7.45647L19.5666 5.39465L17.5666 3.39465C18.6101 4.43813 18.6307 6.15212 17.6742 7.28255Z" fill="url(#paint2_linear_25_474)"/>
<path fill-rule="evenodd" clip-rule="evenodd" d="M25.1087 19.0654L23.0218 16.9784C21.9348 15.8915 20.1522 15.8915 19.0652 16.9784L15.5 20.5871L17.587 22.6741C18.6739 23.7611 20.4565 23.7611 21.5435 22.6741L25.1087 19.0654Z" fill="url(#paint3_linear_25_474)"/>
<path fill-rule="evenodd" clip-rule="evenodd" d="M25.1089 10.9348L21.1523 14.9348L23.0219 16.9783L23.1958 17.1522C24.1089 18.1957 24.1089 19.8044 23.2393 20.8914L25.1089 19.0653L27.1524 17.0218C28.2828 15.8914 28.2828 14.1087 27.1524 12.9783L25.1089 10.9348Z" fill="url(#paint4_linear_25_474)"/>
<path fill-rule="evenodd" clip-rule="evenodd" d="M35 13.2793H36.9946V11.2447H37.9919C39.7598 11.2447 41.0744 10.3404 41.0744 8.66755C41.0744 7.0851 39.8958 6.13565 38.0825 6.13565H35V13.2793ZM36.9946 9.70745V7.80851H37.9465C38.6719 7.80851 39.0798 8.125 39.0798 8.75798C39.0798 9.34575 38.6719 9.70745 37.9465 9.70745H36.9946ZM43.5677 13.3697C44.6556 13.3697 45.3356 12.8723 45.9702 11.5612L48.7808 6.13565H46.6049L45.0636 9.48139L43.4317 6.13565H41.2558L44.0663 11.3803C43.8396 11.6064 43.613 11.6968 43.4317 11.6968C43.205 11.6968 42.8877 11.6516 42.6157 11.4707L41.8451 12.9176C42.3437 13.1888 42.8877 13.3697 43.5677 13.3697ZM52.8606 13.4149C54.4472 13.4149 55.3539 12.7367 56.0338 11.7872L54.5379 10.7473C54.1299 11.2447 53.6766 11.6064 52.906 11.6064C51.9087 11.6064 51.1834 10.7926 51.1834 9.70745C51.1834 8.66756 51.9087 7.80851 52.906 7.80851C53.5859 7.80851 54.0846 8.12501 54.4926 8.62235L55.9432 7.49203C55.3085 6.63299 54.4019 6 52.9513 6C50.7754 6 49.1888 7.62766 49.1888 9.70745C49.1434 11.8777 50.8207 13.4149 52.8606 13.4149ZM57.2578 13.3697C58.6631 13.3697 59.615 12.5106 59.615 8.12501V7.85373H61.2923V13.2793H63.2869V6.13565H57.8018V7.13032C57.8018 11.4707 57.2578 11.742 56.7138 11.742C56.6231 11.742 56.3512 11.742 56.2605 11.6968L56.1245 13.234C56.2152 13.2793 56.7591 13.3697 57.2578 13.3697ZM63.9669 13.2793H66.0521L66.5507 12.0133H69.316L69.8146 13.2793H71.9452L68.908 6.09043H67.0041L63.9669 13.2793ZM67.1401 10.4761L67.956 8.44149L68.772 10.4761H67.1401ZM72.6705 13.2793H74.6651V10.5665H77.2037V13.2793H79.1982V6.13565H77.2037V8.8032H74.6651V6.13565H72.6705V13.2793ZM79.8329 13.2793H81.9181L82.4168 12.0133H85.182L85.6806 13.2793H87.8112L84.774 6.09043H82.8701L79.8329 13.2793ZM83.0061 10.4761L83.8221 8.44149L84.638 10.4761H83.0061ZM38.7625 22.9548C40.1678 22.9548 41.1198 22.0957 41.1198 17.7101V17.4388H42.797V22.8192H44.7916V15.6755H39.3065V16.6702C39.3065 21.0106 38.7625 21.2819 38.2185 21.2819C38.1279 21.2819 37.8559 21.2819 37.7652 21.2367L37.6292 22.7739C37.7199 22.8191 38.2185 22.9548 38.7625 22.9548ZM46.4235 22.9548C47.8288 22.9548 48.7808 22.0957 48.7808 17.7101V17.4388H50.4581V22.8192H52.4526V15.6755H46.9675V16.6702C46.9675 21.0106 46.4235 21.2819 45.8796 21.2819C45.7889 21.2819 45.5169 21.2819 45.4263 21.2367L45.2903 22.7739C45.3809 22.8191 45.9249 22.9548 46.4235 22.9548ZM53.3593 22.8192H55.6258L57.0765 20.6489H57.9378V22.8192H59.9323V15.6755H56.5325C54.9005 15.6755 53.5859 16.4442 53.5859 18.117C53.5859 19.2473 54.1752 19.9707 55.0365 20.3324L53.3593 22.8192ZM56.6685 19.1569C55.9885 19.1569 55.6258 18.7952 55.6258 18.2979C55.6258 17.7101 56.0338 17.3936 56.7138 17.3936H58.0284V19.1569H56.6685ZM61.2016 22.8192H71.2199V15.6755H69.2253V21.0559H67.1854V15.6755H65.1908V21.0559H63.1509V15.6755H61.2016V22.8192ZM72.4892 22.8192H78.2916V21.1463H74.4384V20.016H77.8836V18.4787H74.4384V17.3936H78.2463V15.7207H72.4892V22.8192ZM79.2889 22.8192H81.2835V20.1064H83.8221V22.8192H85.8166V15.6755H83.8221V18.3431H81.2835V15.6755H79.2889V22.8192ZM87.0859 22.8192H89.0805V20.9654L89.8058 20.1516L91.6191 22.8192H93.9763L91.1658 18.75L93.8857 15.6755H91.5284L89.0805 18.5692V15.6755H87.0859V22.8192ZM98.1468 23C100.368 23 102 21.3271 102 19.2925C102 17.2128 100.368 15.5851 98.1468 15.5851C95.9256 15.5851 94.2936 17.258 94.2936 19.2925C94.2936 21.3271 95.9256 23 98.1468 23ZM98.1468 21.1915C97.0589 21.1915 96.3336 20.2872 96.3336 19.2473C96.3336 18.2075 97.0589 17.3032 98.1468 17.3032C99.2348 17.3032 100.005 18.2075 100.005 19.2473C99.9601 20.3325 99.2348 21.1915 98.1468 21.1915ZM35.0453 22.8192H37.0399V15.6755H35.0453V22.8192Z" fill="#001F0A"/>
<defs>
<linearGradient id="paint0_linear_25_474" x1="18" y1="2" x2="3.57384" y2="16.7094" gradientUnits="userSpaceOnUse">
<stop offset="0.0104167" stop-color="#3D972F"/>
<stop offset="0.869792" stop-color="#8CC765"/>
<stop offset="0.994792" stop-color="#8CC765"/>
</linearGradient>
<linearGradient id="paint1_linear_25_474" x1="8.5" y1="20.5" x2="15.0062" y2="27.2805" gradientUnits="userSpaceOnUse">
<stop stop-color="#1B7600"/>
<stop offset="1" stop-color="#83C15F"/>
</linearGradient>
<linearGradient id="paint2_linear_25_474" x1="16.9654" y1="3.91346" x2="10.8528" y2="26.8355" gradientUnits="userSpaceOnUse">
<stop stop-color="#8CC765"/>
<stop offset="1" stop-color="#4B9F38"/>
</linearGradient>
<linearGradient id="paint3_linear_25_474" x1="22" y1="23" x2="14.0321" y2="17.4722" gradientUnits="userSpaceOnUse">
<stop stop-color="#459427"/>
<stop offset="1" stop-color="#8CC765"/>
</linearGradient>
<linearGradient id="paint4_linear_25_474" x1="28.2171" y1="15.072" x2="21.1059" y2="16.5781" gradientUnits="userSpaceOnUse">
<stop stop-color="#99CF61"/>
<stop offset="1" stop-color="#54A43E"/>
</linearGradient>
</defs>
</svg>
