<svg width="28" height="28" viewBox="0 0 28 28" fill="none" xmlns="http://www.w3.org/2000/svg">
<g id="Group 298">
<path id="Vector" fill-rule="evenodd" clip-rule="evenodd" d="M2.89132 18.0653L16.1957 4.76089C17.3262 3.80436 19.0218 3.84784 20.0653 4.89132L18.0653 2.89131L16.0218 0.847829C14.8914 -0.28261 13.0653 -0.28261 11.9783 0.847829L0.847829 11.9783C-0.28261 13.1087 -0.28261 14.9348 0.847829 16.0218L2.89132 18.0653Z" fill="url(#paint0_linear_25_476)"/>
<path id="Vector_2" fill-rule="evenodd" clip-rule="evenodd" d="M10.1958 17.2391L18.0654 25.1087L16.0219 27.1522C14.8915 28.2827 13.0654 28.2827 11.9785 27.1522L6.15234 21.3261L10.1958 17.2391Z" fill="url(#paint1_linear_25_476)"/>
<path id="Vector_3" fill-rule="evenodd" clip-rule="evenodd" d="M17.6742 6.28255L6.41326 17.5435C5.28282 18.6739 5.28282 20.5 6.41326 21.5869L8.45675 23.6304L10.4568 25.6304C9.41327 24.5435 9.36979 22.8478 10.3263 21.7609L21.5872 10.4999C22.7177 9.36951 22.7177 7.54343 21.5872 6.45647L19.5666 4.39465L17.5666 2.39465C18.6101 3.43813 18.6307 5.15212 17.6742 6.28255Z" fill="url(#paint2_linear_25_476)"/>
<path id="Vector_4" fill-rule="evenodd" clip-rule="evenodd" d="M25.1087 18.0654L23.0218 15.9784C21.9348 14.8915 20.1522 14.8915 19.0652 15.9784L15.5 19.5871L17.587 21.6741C18.6739 22.7611 20.4565 22.7611 21.5435 21.6741L25.1087 18.0654Z" fill="url(#paint3_linear_25_476)"/>
<path id="Vector_5" fill-rule="evenodd" clip-rule="evenodd" d="M25.1089 9.93481L21.1523 13.9348L23.0219 15.9783L23.1958 16.1522C24.1089 17.1957 24.1089 18.8044 23.2393 19.8914L25.1089 18.0653L27.1524 16.0218C28.2828 14.8914 28.2828 13.1087 27.1524 11.9783L25.1089 9.93481Z" fill="url(#paint4_linear_25_476)"/>
</g>
<defs>
<linearGradient id="paint0_linear_25_476" x1="18" y1="0.999999" x2="3.57384" y2="15.7094" gradientUnits="userSpaceOnUse">
<stop offset="0.0104167" stop-color="#3D972F"/>
<stop offset="0.869792" stop-color="#8CC765"/>
<stop offset="0.994792" stop-color="#8CC765"/>
</linearGradient>
<linearGradient id="paint1_linear_25_476" x1="8.5" y1="19.5" x2="15.0062" y2="26.2805" gradientUnits="userSpaceOnUse">
<stop stop-color="#1B7600"/>
<stop offset="1" stop-color="#83C15F"/>
</linearGradient>
<linearGradient id="paint2_linear_25_476" x1="16.9654" y1="2.91346" x2="10.8528" y2="25.8355" gradientUnits="userSpaceOnUse">
<stop stop-color="#8CC765"/>
<stop offset="1" stop-color="#4B9F38"/>
</linearGradient>
<linearGradient id="paint3_linear_25_476" x1="22" y1="22" x2="14.0321" y2="16.4722" gradientUnits="userSpaceOnUse">
<stop stop-color="#459427"/>
<stop offset="1" stop-color="#8CC765"/>
</linearGradient>
<linearGradient id="paint4_linear_25_476" x1="28.2171" y1="14.072" x2="21.1059" y2="15.5781" gradientUnits="userSpaceOnUse">
<stop stop-color="#99CF61"/>
<stop offset="1" stop-color="#54A43E"/>
</linearGradient>
</defs>
</svg>
