<svg width="24" height="24" viewBox="0 0 24 24" fill="none" xmlns="http://www.w3.org/2000/svg">
<path fill-rule="evenodd" clip-rule="evenodd" d="M2.75 0H14.25C15.77 0 17 1.23 17 2.75V12.42L11.11 18.3C10.71 18.71 10.45 19.21 10.35 19.77L10.13 21H2.75C1.23 21 0 19.77 0 18.25V2.75C0 1.23 1.23 0 2.75 0ZM8 4H4C3.45 4 3 4.45 3 5C3 5.55 3.45 6 4 6H8C8.55 6 9 5.55 9 5C9 4.45 8.55 4 8 4ZM4 14H9C9.55 14 10 13.55 10 13C10 12.45 9.55 12 9 12H4C3.45 12 3 12.45 3 13C3 13.55 3.45 14 4 14ZM4 10H13C13.55 10 14 9.55 14 9C14 8.45 13.55 8 13 8H4C3.45 8 3 8.45 3 9C3 9.55 3.45 10 4 10Z" fill="#74C281"/>
<path d="M12.2156 23.7858C12.3541 23.9241 12.5426 24 12.736 24C12.7782 24 12.8214 23.9961 12.8636 23.9883L15.8141 23.4723C15.9633 23.447 16.1008 23.3759 16.2068 23.2698L23.497 16.0408C24.1677 15.3758 24.1677 14.2951 23.497 13.6311L22.2825 12.4268C21.8014 11.9497 20.9217 11.7092 20.0262 12.5991L12.736 19.8271C12.63 19.9333 12.5573 20.0696 12.5318 20.2166L12.0114 23.1423C11.9692 23.3779 12.0458 23.6174 12.2156 23.7858Z" fill="#74C281"/>
</svg>
