<svg width="75" height="55" viewBox="0 0 75 55" fill="none" xmlns="http://www.w3.org/2000/svg">
<path d="M20.1189 7.12753C21.9691 3.50279 22.8943 1.69043 24.5341 0.974716C24.7747 0.869659 25.0233 0.783729 25.2775 0.717724C27.0093 0.268054 28.8561 1.12225 32.5499 2.83065C36.5139 4.66407 38.4959 5.58079 39.258 7.308C39.3694 7.56045 39.4597 7.82169 39.528 8.08904C39.9952 9.91819 39.0023 11.8632 37.0166 15.7532L20.3811 48.3424C18.5308 51.9671 17.6057 53.7795 15.9659 54.4952C15.7252 54.6002 15.4766 54.6861 15.2225 54.7522C13.4907 55.2018 11.6439 54.3476 7.95014 52.6392C3.9861 50.8058 2.00408 49.8891 1.24199 48.1619C1.1306 47.9094 1.0403 47.6482 0.972017 47.3808C0.504822 45.5517 1.49767 43.6067 3.48336 39.7167L20.1189 7.12753ZM55.1483 7.12753C56.9986 3.5028 57.9237 1.69043 59.5635 0.974718C59.8042 0.86966 60.0528 0.78373 60.307 0.717725C62.0387 0.268056 63.8855 1.12225 67.5793 2.83065C71.5433 4.66408 73.5253 5.58079 74.2874 7.308C74.3988 7.56045 74.4891 7.82169 74.5574 8.08904C75.0246 9.91818 74.0317 11.8632 72.046 15.7532L55.4105 48.3423C53.5603 51.9671 52.6351 53.7794 50.9954 54.4952C50.7547 54.6002 50.5061 54.6861 50.2519 54.7522C48.5201 55.2018 46.6733 54.3476 42.9796 52.6392C39.0155 50.8058 37.0335 49.8891 36.2714 48.1619C36.16 47.9094 36.0697 47.6482 36.0014 47.3808C35.5342 45.5517 36.5271 43.6067 38.5128 39.7167L55.1483 7.12753Z" fill="#CFE4D3"/>
</svg>
